# xmcd CD database file
#
# Track frame offsets:
#	150
#	35430
#	61610
#	87935
#	126232
#	171076
#
# Disc length: 3089 seconds
#
# Revision: 0
# Processed by: cddbd v1.5.2PL0 Copyright (c) Steve Scherf et al.
# Submitted via: CDex 1.51
#
DISCID=440c0f06
DTITLE=Magnus Mehl Quintet - Jazz Getxo
DYEAR=2006
DGENRE=Jazz
TTITLE0=The Dutch Way To Ride A Bike
TTITLE1=200 Turkeys
TTITLE2=Voyage
TTITLE3=Fruchstuck In Moll
TTITLE4=The Lovebrothers Story
TTITLE5=Marabi
EXTD=YEAR: 2006
EXTT0=
EXTT1=
EXTT2=
EXTT3=
EXTT4=
EXTT5=
PLAYORDER=
